# xmcd
#
# Track frame offsets:
#	150
#	15361
#	34780
#	52091
#	70463
#	87609
#	101609
#	114604
#	132625
#	150412
#	165709
#	184120
#	202959
#	218042
#	234329
#	246232
#
# Disc length: 3493 seconds
#
# Revision: 1
# Processed by: cddbd v1.5.2PL0 Copyright (c) Steve Scherf et al.
# Submitted via: audiograbber 1.83.01
#
DISCID=de0da310
DTITLE=KölschFraktion - Mir sin do
DYEAR=2016
DGENRE=kölsch
TTITLE0=Mir sin do!
TTITLE1=Mi levve lang
TTITLE2=Himmel op Äde
TTITLE3=Kölsch Positiv
TTITLE4=Ich ben ne Räuber
TTITLE5=Einfach lääve
TTITLE6=Kumm loss mer fiere
TTITLE7=Ävver wat ess met dä Kölsche
TTITLE8=Ne einfache Jung
TTITLE9=Föttche
TTITLE10=Schwad nit un sing
TTITLE11=En Kölle jebore
TTITLE12=Ich hür su jän die Musik
TTITLE13=Blotwoosch, Kölsch un e lecker Mädche
TTITLE14=Nur noch eine
TTITLE15=Blieve
EXTD=
EXTT0=
EXTT1=
EXTT2=
EXTT3=
EXTT4=
EXTT5=
EXTT6=
EXTT7=
EXTT8=
EXTT9=
EXTT10=
EXTT11=
EXTT12=
EXTT13=
EXTT14=
EXTT15=
PLAYORDER=
